<svg height="512pt" viewBox="0 0 512 512" width="512pt" xmlns="http://www.w3.org/2000/svg"><path d="m472.101562 300.699219-4.203124 23.101562-31.199219 173.199219h-362l-31.5-174.402344-4.5-24.597656 12.300781-8.699219c5.699219 8.101563 14.699219 12.898438 24.300781 12.898438 16.800781 0 30-13.5 30-30h30c0 16.5 14.5 30 31 30 16.800781 0 30-13.5 30-30h30c0 16.199219 13.199219 29.699219 29.398438 30h.601562c16.800781 0 30-13.5 30-30h30c0 16.5 13.5 30 30 30 16.800781 0 31-13.5 31-30h30c0 16.5 13.5 30 30 30 9.300781 0 17.699219-4.199219 23.398438-11.097657zm0 0" fill="#76e2f8"/><path d="m320.800781 113.5-65.101562-113.5-65.097657 113.5c-6.300781 11.398438-9.902343 24.300781-9.902343 37.5 0 41.398438 33.601562 75 75 75 41.402343 0 75-33.601562 75-75 0-13.199219-3.597657-26.101562-9.898438-37.5zm0 0" fill="#a8ebfa"/><path d="m255.699219 226v-226l65.101562 113.5c6.300781 11.398438 9.898438 24.300781 9.898438 37.5 0 41.398438-33.597657 75-75 75zm0 0" fill="#25d9f8"/><path d="m472.101562 300.699219-4.203124 23.101562-31.199219 173.199219h-181v-194.800781h.601562c16.800781 0 30-13.5 30-30h30c0 16.5 13.5 30 30 30 16.800781 0 31-13.5 31-30h30c0 16.5 13.5 30 30 30 9.300781 0 17.699219-4.199219 23.398438-11.101563zm0 0" fill="#25d9f8"/><path d="m511.398438 168.699219-62.097657 343.300781h-387.199219l-62.101562-343.300781 29.398438-5.398438 57.902343 318.699219h336.800781l57.898438-318.699219zm0 0" fill="#ececf1"/><path d="m511.398438 168.699219-62.097657 343.300781h-193.601562v-30h168.402343l57.898438-318.699219zm0 0" fill="#d3d3d8"/></svg>