<?xml version="1.0" standalone="no"?>
<!DOCTYPE svg PUBLIC "-//W3C//DTD SVG 20010904//EN"
 "http://www.w3.org/TR/2001/REC-SVG-20010904/DTD/svg10.dtd">
<svg version="1.0" xmlns="http://www.w3.org/2000/svg"
 width="700.000000pt" height="700.000000pt" viewBox="0 0 700.000000 700.000000"
 preserveAspectRatio="xMidYMid meet">
<metadata>
Created by potrace 1.11, written by Peter Selinger 2001-2013
</metadata>
<g transform="translate(0.000000,700.000000) scale(0.100000,-0.100000)"
fill="#000000" stroke="none">
<path d="M3371 6782 c-69 -119 -218 -380 -332 -578 -114 -199 -218 -381 -232
-405 -13 -24 -67 -118 -119 -209 -98 -172 -113 -201 -147 -287 -72 -182 -87
-405 -41 -603 0 -3 3 -16 6 -30 23 -103 122 -298 191 -377 185 -210 364 -315
628 -369 65 -13 281 -13 350 1 433 86 755 408 830 832 29 160 12 367 -43 523
-26 76 -78 177 -187 365 -117 202 -674 1174 -732 1278 -24 42 -45 77 -46 77
-1 0 -58 -98 -126 -218z"/>
<path d="M355 4758 c-22 -4 -69 -12 -105 -18 -36 -7 -69 -13 -75 -14 -5 -1
-44 -8 -85 -16 -41 -7 -78 -16 -82 -19 -4 -3 -3 -26 2 -51 4 -25 11 -61 14
-80 3 -19 8 -46 11 -60 3 -14 9 -50 15 -80 5 -30 14 -80 19 -110 6 -30 19
-104 30 -165 11 -60 23 -123 26 -140 3 -16 19 -106 35 -200 17 -93 35 -190 40
-215 5 -25 11 -58 14 -75 3 -28 19 -114 31 -175 7 -33 23 -126 30 -170 3 -19
8 -42 10 -50 2 -8 7 -31 10 -50 3 -19 10 -62 16 -95 6 -33 13 -71 15 -85 28
-157 66 -365 74 -405 5 -27 12 -63 15 -80 11 -63 16 -92 25 -140 5 -27 12 -66
16 -85 14 -84 24 -142 43 -240 10 -58 22 -125 26 -150 3 -25 10 -61 15 -80 5
-19 11 -51 14 -70 9 -65 35 -212 40 -229 3 -9 7 -34 11 -56 3 -22 12 -78 21
-125 9 -47 18 -96 20 -110 3 -14 12 -63 20 -110 9 -47 17 -92 19 -100 1 -8 6
-35 10 -60 4 -25 9 -54 11 -65 2 -11 6 -31 9 -45 2 -14 9 -50 15 -80 6 -30 13
-71 16 -90 2 -19 7 -45 9 -56 3 -12 20 -109 40 -215 19 -107 40 -218 46 -247
l10 -52 2647 0 2647 0 84 468 c45 257 87 483 91 502 5 19 11 53 15 75 3 23 7
52 10 65 4 21 71 390 90 495 3 17 17 93 31 170 14 77 86 475 160 885 74 410
146 806 159 880 26 146 26 141 55 310 12 63 23 122 25 130 2 8 6 31 9 50 7 42
30 175 81 453 20 114 36 209 34 211 -7 6 -393 75 -397 71 -5 -5 -205 -1091
-276 -1495 -39 -225 -51 -277 -70 -298 -34 -38 -154 -91 -221 -98 -160 -16
-322 66 -399 203 -23 40 -56 150 -56 186 0 16 -17 17 -207 15 l-207 -3 -3 -35
c-13 -120 -92 -243 -197 -305 -173 -101 -374 -77 -513 61 -62 63 -113 172
-113 247 l0 37 -209 0 -208 0 -7 -57 c-16 -143 -124 -277 -266 -329 -63 -23
-198 -27 -258 -7 -156 53 -273 201 -284 359 l-2 32 -204 0 c-146 0 -204 -3
-207 -11 -2 -7 -6 -30 -9 -53 -23 -183 -189 -333 -376 -340 -42 -2 -95 2 -119
7 -147 33 -272 150 -314 294 -17 58 -17 59 -17 84 0 19 -9 20 -205 19 -170 0
-205 -2 -205 -14 0 -17 1 -12 -15 -81 -70 -298 -439 -414 -662 -208 -46 42
-42 32 -78 230 -41 234 -59 334 -70 385 -2 14 -7 39 -10 55 -3 17 -7 44 -10
60 -68 370 -70 380 -80 440 -3 22 -10 60 -15 85 -6 25 -12 59 -15 75 -3 17
-14 80 -25 140 -11 61 -22 124 -25 140 -3 17 -8 41 -11 53 -2 13 -7 43 -11 65
-8 60 -12 64 -58 55z"/>
</g>
</svg>
